<svg xmlns="http://www.w3.org/2000/svg" height="1200" width="1600" version="1.1" xmlns:xlink="http://www.w3.org/1999/xlink" xmlns:svgjs="http://svgjs.com/svgjs"><rect fill="#f3ebe9" width="1600" height="1200"></rect><g><path d="M606.39 168.38H1068.83C1103.3 168.38 1131.2 196.28 1131.2 230.75V651.18C1131.2 685.65 1103.3 713.54 1068.83 713.54H606.39C571.92 713.54 544.02 685.65 544.02 651.18V230.75C544.13 196.28 572.02 168.38 606.39 168.38Z" fill="#1d1d1d" opacity="0.3" stroke-width="4" stroke="none"></path><path d="M627.93 146.83H1090.37C1124.84 146.83 1152.74 174.73 1152.74 209.2V629.63C1152.74 664.1 1124.84 692 1090.37 692H627.93C593.46 692 565.56 664.1 565.56 629.63V209.2C565.67 174.73 593.57 146.83 627.93 146.83Z" fill="#ffa0dc" opacity="1" stroke-width="4" stroke="none"></path><path d="M766.03 561.55H1065.49C1086.92 561.55 1104.27 578.9 1104.27 600.33 1104.27 621.77 1086.92 639.11 1065.49 639.11H727.25V600.33C727.25 578.9 744.59 561.55 766.03 561.55Z" fill="#ffc930" opacity="1" stroke-width="4" stroke="none"></path><path d="M652.92 561.55C674.36 561.55 691.7 578.9 691.7 600.33 691.7 621.77 674.36 639.11 652.92 639.11 631.49 639.11 614.14 621.77 614.14 600.33 614.14 578.9 631.49 561.55 652.92 561.55Z" fill="#ff4f32" opacity="1" stroke-width="4" stroke="none"></path><path d="M652.92 195.31H1065.49C1086.92 195.31 1104.27 212.65 1104.27 234.09V481.84C1104.27 503.28 1086.92 520.62 1065.49 520.62H652.92C631.49 520.62 614.14 503.28 614.14 481.84V234.09C614.14 212.65 631.49 195.31 652.92 195.31Z" fill="#ffffff" opacity="1" stroke-width="4" stroke="none"></path><path d="M669.08 466.76H1043.94" stroke="#8c8c8c" stroke-width="4" stroke-linecap="round" stroke-linejoin="round" opacity="1" fill="none"></path><path d="M747.18 489.38C759.37 489.38 769.26 479.49 769.26 467.3 769.26 455.1 759.37 445.22 747.18 445.22 734.98 445.22 725.09 455.1 725.09 467.3 725.09 479.49 734.98 489.38 747.18 489.38Z" fill="#231f20" opacity="1" stroke-width="4" stroke="none"></path><path d="M894.32 321.45L837.34 283.74C832.92 280.84 827 282.02 824.09 286.44 823.01 288.05 822.47 289.88 822.47 291.72V367.01C822.47 372.29 826.78 376.6 832.06 376.6 833.89 376.6 835.83 376.06 837.34 374.98L894.32 337.28C898.74 334.37 899.81 328.34 896.91 324.03 896.15 322.95 895.29 322.09 894.32 321.45Z" fill="#ff4f32" opacity="1" stroke-width="4" stroke="none"></path></g><g><path d="M1319.4 561.9H1006.3C981.5 561.9 961.4 582 961.4 606.8V918.5C961.4 943.3 981.5 963.4 1006.3 963.4L1319.4 963.4C1344.2 963.4 1364.3 943.3 1364.3 918.5V606.7C1364.3 582 1344.2 561.9 1319.4 561.9Z" fill="#272727" opacity="0.2" stroke-width="4" stroke="none"></path><path d="M1299.3 541.8H986.2C961.4 541.8 941.3 561.9 941.3 586.7V898.4C941.3 923.2 961.4 943.3 986.2 943.3H1299.3C1324.1 943.3 1344.2 923.2 1344.2 898.4V586.6C1344.2 561.9 1324.1 541.8 1299.3 541.8Z" fill="#ffffff" opacity="1" stroke-width="4" stroke="none"></path></g><g><path d="M539.25 1069.02C540.81 1052.9 530.09 1047.11 515.31 1038.98 507.56 1034.75 498.88 1029.98 489.88 1022.78 474.39 1010.42 481.43 973.88 495.28 901.05 498.96 881.88 503.1 860.13 507.4 835.65 511 815.15 513.98 795.75 516.09 777.91H415.32C416.97 789.1 417.75 797.08 417.75 802.94 417.75 821.64 413.21 835.72 407.97 852 404.06 864.04 399.68 877.74 396.62 895.26 380.74 986.95 405.78 1068.16 406.01 1068.94L539.25 1069.02Z" fill="#9b5a59" opacity="1" stroke-width="4" stroke="none"></path><path d="M516.24 777.99C525.4 702.26 520 659.46 512.65 615.26 512.49 615.1 496.53 601.18 476.42 587.41 442.78 564.41 423.38 559.56 413.13 559.56 405.93 559.56 400.3 561.75 396.23 566.21 389.9 573.09 387.47 585.37 388.96 602.82 393.34 653.83 401.71 700.22 408.44 737.46 411.25 753.11 413.68 766.56 415.4 778.07H516.24V777.99Z" fill="#ff4f32" opacity="1" stroke-width="4" stroke="none"></path><path d="M405.63 720.88C405.79 720.72 424.33 704.21 441.85 682.23 458.05 661.97 476.67 632.78 473.38 608.92 469.78 582.48 440.52 561.9 417.76 561.9 409.15 561.9 401.87 564.8 396.87 570.28 390.37 577.32 387.71 588.27 388.97 602.74 392.72 645.85 399.45 686.69 405.63 720.88Z" fill="#000000" opacity="0.25" stroke-width="4" stroke="none"></path><path d="M717.93 455.43C736.47 446.82 750.01 439.78 758.3 434.54 798.36 408.96 847.8 368.43 848.27 368.04 877.45 359.36 906.24 324.93 909.29 320.32 912.58 315.39 913.75 311.48 912.66 308.82 911.72 306.55 909.45 306 909.37 306 912.11 303.73 914.14 301.15 914.77 299.98 917.51 294.42 913.05 290.35 912.97 290.35 914.93 288.71 917.19 283.94 913.99 279.64 913.13 278.46 911.72 277.92 909.76 277.92 907.72 277.76 905.69 278.62 906.74 277.98 906.43 276.57 907.45 276.11 906.01 273.69 905.3 272.2 903.66 271.27 901.23 270.87 900.92 270.8 900.53 270.8 900.14 270.8 888.87 270.8 856.56 295.13 856.25 295.36 856.33 295.28 863.6 283.31 861.65 277.37 861.18 276.04 860.32 275.02 858.99 274.47 858.75 274.39 858.44 274.32 858.13 274.32 851.56 274.32 832.86 297.63 821.67 311.48 818.38 315.55 815.8 318.83 814.39 320.32 802.74 332.99 731.86 371.64 717.54 378.99 709.09 383.22 700.33 386.97 691.41 390.26L717.93 455.43Z" fill="#9b5a59" opacity="1" stroke-width="4" stroke="none"></path><path d="M628.44 494C632.2 492.35 637.67 490.09 643.93 487.5 663.33 479.37 692.67 467.16 717.94 455.43L691.57 390.18C681.64 393.94 671.08 397.53 660.91 401.06 637.91 408.96 616.16 416.39 607.32 423.59L628.44 494Z" fill="#ffc930" opacity="1" stroke-width="4" stroke="none"></path><path d="M628.43 494C632.19 492.35 637.66 490.09 643.92 487.5 647.99 485.78 652.45 483.91 657.22 481.95L631.41 467.32 628.43 494Z" fill="#000000" opacity="0.25" stroke-width="4" stroke="none"></path><path d="M856.41 294.97C853.83 300.06 850.94 304.98 847.73 309.68 847.73 309.68 851.25 330.02 843.04 343.4" stroke="#000000" stroke-width="4" stroke-linecap="round" stroke-linejoin="round" opacity="1" fill="none"></path><path d="M906.62 278.19C897.17 278.62 866.27 301.46 866.27 301.46" stroke="#000000" stroke-width="4" stroke-linecap="round" stroke-linejoin="round" opacity="1" fill="none"></path><path d="M909.07 306.08C903.04 308.58 881.14 324.23 881.14 324.23" stroke="#000000" stroke-width="4" stroke-linecap="round" stroke-linejoin="round" opacity="1" fill="none"></path><path d="M912.98 290.35C905.39 290.59 874.09 313.28 874.09 313.28" stroke="#000000" stroke-width="4" stroke-linecap="round" stroke-linejoin="round" opacity="1" fill="none"></path><path d="M627.96 432.19C626.09 427.26 624.13 422.41 622.17 417.72 617.17 405.59 612.47 394.17 610.44 382.04 610.52 382.04 623.03 379.62 631.01 373.83 635.16 370.78 639.46 364.99 640.79 360.53 644.39 348.56 639.39 340.5 627.02 325.09 627.02 325.01 630.15 316.72 628.12 313.36 627.57 312.49 626.63 311.95 625.69 311.79 624.6 311.48 623.19 311.4 621.39 311.4 618.97 311.4 616.7 311.71 616.7 311.71 608.72 300.6 602.62 293.17 595.34 288.24 590.88 285.35 584.31 290.9 577.11 290.9 564.36 290.9 554.97 295.67 541.44 304.44 525.4 314.76 519.37 327.83 526.02 345.67 529.31 354.58 536.51 378.6 546.76 396.99L587.91 452.69 627.96 432.19Z" fill="#9b5a59" opacity="1" stroke-width="4" stroke="none"></path><path d="M612.24 390.18C611.53 387.36 610.91 384.7 610.52 382.04 604.73 382.91 598.94 383.45 593.15 383.53L612.24 390.18Z" fill="#0f0f0f" opacity="0.25" stroke-width="4" stroke="none"></path><path d="M558.5 412.95C558.73 412.79 579.94 396.83 579.94 382.91 579.62 382.83 550.99 377.27 550.99 359.43 550.99 348.25 564.68 346.53 572.82 346.53 576.88 346.53 579.86 346.92 579.94 346.92 580.01 346.76 582.2 331.9 571.61 321.95 571.17 321.51 575.87 323.29 579.23 323.29 583.38 323.29 588.46 322.35 589.32 317.97 590.89 310.23 585.03 307 581.18 304.51 579.55 303.47 582.11 303.79 584.58 303.89 589.64 303.89 594.8 301.15 597.69 298.88 600.9 296.38 602.15 293.87 602.15 293.8 600.04 291.68 597.69 289.81 595.27 288.09 590.81 285.19 584.32 283.63 577.12 283.63 564.37 283.63 549.89 288.4 536.36 297.16 520.32 307.49 513.51 327.91 520.16 345.74 523.45 354.66 536.36 378.45 546.61 396.83L558.5 412.95Z" fill="#0f0f0f" opacity="1" stroke-width="4" stroke="none"></path><path d="M612.24 337.76C618.26 340.66 621.55 337.53 622.96 336.51" stroke="#000000" stroke-width="4" stroke-linecap="round" stroke-linejoin="round" opacity="1" fill="none"></path><path d="M605.13 321.1C603.61 321.1 602.39 319.87 602.39 318.36 602.39 316.85 603.61 315.62 605.13 315.62 606.64 315.62 607.86 316.85 607.86 318.36 607.86 319.87 606.64 321.1 605.13 321.1Z" fill="#181818" opacity="1" stroke-width="4" stroke="none"></path><path d="M611.85 381.73C604.81 382.51 596.59 382.75 596.59 382.75" stroke="#000000" stroke-width="4" stroke-linecap="round" stroke-linejoin="round" opacity="1" fill="none"></path><path d="M578.36 364.05L569.76 363.27" stroke="#000000" stroke-width="4" stroke-linecap="round" stroke-linejoin="round" opacity="1" fill="none"></path><path d="M467.27 469.2V401.99C453.03 403.48 443.1 404.73 443.02 404.73 442.31 404.65 372.14 400.04 331.93 396.91 326.29 391.67 316.04 385.49 308.46 381.26 306.89 380.4 305.33 379.54 303.84 378.68 296.8 374.69 291.24 371.48 288.04 371.48 286.94 371.48 286.16 371.87 285.69 372.66 282.4 377.98 286.94 384.08 291.4 389.95L291.95 390.65C291.79 390.57 277.16 386.9 266.29 385.41 266.13 385.41 266.44 385.41 266.29 385.41 260.11 385.41 252.6 398 249.39 410.05 245.79 423.43 247.67 433.68 254.4 437.59 278.34 451.36 299.85 454.25 313.62 454.25 324.41 454.25 330.99 452.46 331.06 452.46 362.12 459.81 408.75 466.62 431.2 468.1 441.69 468.81 453.66 469.12 466.8 469.12H467.27V469.2 469.2Z" fill="#9b5a59" opacity="1" stroke-width="4" stroke="none"></path><path d="M336.46 434.46C357.35 424.45 357.51 399.1 357.51 398.86 347.73 398.16 339.12 397.46 331.93 396.91 326.29 391.67 316.04 385.49 308.46 381.26 306.89 380.4 305.33 379.54 303.84 378.68 296.8 374.69 291.24 371.48 288.04 371.48 286.94 371.48 286.16 371.87 285.69 372.66 282.4 377.98 286.94 384.08 291.4 389.95L291.95 390.65 280.06 448.93C291.24 452.46 302.51 454.25 313.62 454.25 324.41 454.25 330.99 452.46 331.06 452.46 333.57 453.08 336.31 453.71 339.2 454.33L336.46 434.46Z" fill="#0f0f0f" opacity="0.25" stroke-width="4" stroke="none"></path><path d="M561.15 611.35C561.39 611.19 581.8 597.34 601.29 573.17 619.28 550.87 640.01 514.96 637.12 470.53 636.1 455.19 631.72 441.97 628.04 432.19 627.96 432.19 625.69 432.82 622.17 432.82 616.46 432.82 608.01 431.18 600.35 423.51 584.31 407.47 571.87 396.91 546.6 396.75 546.05 396.75 545.5 396.75 544.96 396.75 522.03 396.75 490.04 399.57 467.27 401.99V469.2C467.74 469.2 468.13 469.2 468.6 469.2 497.47 469.2 518.67 468.96 518.9 468.96L493.87 540.16 561.15 611.35Z" fill="#ffc930" opacity="1" stroke-width="4" stroke="none"></path><path d="M635.71 458.95C636.26 462.39 636.88 466.93 637.12 470.53 637.59 477.18 637.27 485.86 636.65 492.51" stroke="#000000" stroke-width="4" stroke-linecap="round" stroke-linejoin="round" opacity="1" fill="none"></path><path d="M518.9 468.96L539.32 469.2" stroke="#000000" stroke-width="4" stroke-linecap="round" stroke-linejoin="round" opacity="1" fill="none"></path><path d="M335.29 537.81C332.08 537.89 329.27 537.96 326.53 537.96 317.92 537.96 310.65 537.42 303.76 536.09 315.97 517.78 318.7 489.38 321.6 459.26 322.69 447.37 323.87 435.01 325.74 423.43 326.06 423.35 354.61 412.24 350 392.92 347.73 383.45 342.8 374.69 337.64 365.46 332.24 355.84 326.61 345.9 324.18 335.03 323.48 331.74 322.77 328.38 322.07 325.09 318.23 306.78 314.64 289.57 307.75 288.95 307.67 288.95 307.59 288.95 307.52 288.95 297.35 288.95 276.93 358.42 270.9 379.7 257.37 427.73 244.85 463.1 235.7 488.91 220.05 533.19 212.85 553.38 221.62 572.94 232.57 597.19 268.09 621.13 314.32 635.44L335.29 537.81Z" fill="#9b5a59" opacity="1" stroke-width="4" stroke="none"></path><path d="M458.66 777.91C459.45 757.57 459.45 694.98 451.78 647.34" stroke="#000000" stroke-width="4" stroke-linecap="round" stroke-linejoin="round" opacity="1" fill="none"></path><path d="M350.23 398.16C349.29 414.43 325.51 423.43 325.51 423.43 323.95 433.29 322.93 443.54 321.91 453.86" stroke="#000000" stroke-width="4" stroke-linecap="round" stroke-linejoin="round" opacity="1" fill="none"></path><path d="M261.67 456.6C264.02 456.6 265.43 455.51 266.13 454.8 268.4 452.53 267.77 447.14 266.37 444.55 266.44 444.63 268.32 445.02 270.51 445.02 272.47 445.02 275.13 444.71 276.3 443.07 279.43 439.16 277.87 434.38 277.08 432.11 277.08 432.04 277.01 432.04 277.01 432.04 277.08 432.04 277.4 432.11 277.71 432.11 279.12 432.11 282.4 431.57 283.34 426.72 284.28 422.26 281.46 418.19 280.21 416.62 279.82 416.15 279.43 415.76 279.43 415.76 279.51 415.76 280.84 414.2 281.46 411.77 282.17 409.11 281.78 406.45 280.21 404.03 278.88 401.92 273.88 397.69 270.82 396.2 270.75 396.2 269.03 397.93 267.15 397.93 266.83 397.93 266.44 397.85 266.13 397.77 260.97 415.37 256.74 427.81 252.36 440.95 251.42 443.69 250.48 446.43 249.55 449.25 250.09 449.95 250.72 450.66 251.34 451.28 251.81 451.75 252.28 452.14 252.75 452.53 256.04 455.19 259.01 456.6 261.67 456.6Z" fill="#0f0f0f" opacity="0.25" stroke-width="4" stroke="none"></path><path d="M257.37 449.33C259.32 449.33 261.05 448.7 262.45 447.37 263.08 446.82 263.55 445.88 263.63 444.55 263.78 441.89 260.97 436.96 260.97 436.96 260.97 436.96 264.1 437.9 266.52 437.9 269.65 437.9 271.84 436.73 273.02 434.54 275.28 429.61 272.7 425.31 271.61 424.37 271.53 424.37 271.53 424.29 271.53 424.29 271.61 424.29 271.92 424.37 272.31 424.37 274.27 424.37 279.04 423.82 280.06 418.81 280.53 416.62 279.9 414.51 278.34 412.56 276.77 410.6 274.66 409.43 274.66 409.43 277.87 406.84 278.57 402.15 276.22 398.79 275.05 396.91 268.63 393.86 267.46 393.31 267.3 393.23 267.3 393.15 267.3 393L269.34 385.17 265.5 385.64C265.5 385.64 254.55 387.29 251.58 390.89 248.68 394.33 248.29 397.38 248.53 399.33 248.68 400.98 249.23 401.84 249.23 401.92 249 401.99 243.76 404.26 242.19 408.17 241.17 410.6 241.64 414.51 243.21 417.56 243.21 417.56 241.64 419.44 241.02 422.18 240.47 424.6 240.63 428.2 244.46 431.41 243.13 432.66 242.35 434.46 242.27 436.26 242.19 438.69 243.44 441.19 246.02 443.61 246.49 444.08 246.96 444.48 247.43 444.87 250.95 447.76 254.4 449.33 257.37 449.33Z" fill="#9b5a59" opacity="1" stroke-width="4" stroke="none"></path><path d="M269.34 385.17L266.99 393C269.34 393.78 274.66 396.52 275.99 398.55 278.34 401.92 277.71 406.61 274.5 409.19 274.58 409.19 281.15 412.79 279.9 418.58 278.65 424.92 271.37 424.13 271.37 424.13 271.37 424.13 271.45 424.21 271.53 424.21 272.47 425 275.28 429.38 272.94 434.38 270.04 440.17 260.89 436.81 260.81 436.73 263.71 439.86 264.41 445.57 262.38 447.29 260.03 449.4 256.12 450.5 250.25 446.82" stroke="#000000" stroke-width="4" stroke-linecap="round" stroke-linejoin="round" opacity="1" fill="none"></path><path d="M249 401.6C255.26 406.3 274.5 409.27 274.5 409.27" stroke="#000000" stroke-width="4" stroke-linecap="round" stroke-linejoin="round" opacity="1" fill="none"></path><path d="M271.53 424.29C263.86 423.59 250.17 421.08 242.97 417.25" stroke="#000000" stroke-width="4" stroke-linecap="round" stroke-linejoin="round" opacity="1" fill="none"></path><path d="M244.23 431.1C249.62 433.37 255.73 435.24 261.36 436.81" stroke="#000000" stroke-width="4" stroke-linecap="round" stroke-linejoin="round" opacity="1" fill="none"></path><path d="M303.53 536.56L298.83 542.82" stroke="#000000" stroke-width="4" stroke-linecap="round" stroke-linejoin="round" opacity="1" fill="none"></path><path d="M313.15 295.99C309.71 295.91 307.67 300.68 306.89 302.25" stroke="#000000" stroke-width="4" stroke-linecap="round" stroke-linejoin="round" opacity="1" fill="none"></path><path d="M317.06 304.59C313.62 304.51 310.8 308.5 310.02 310.07" stroke="#000000" stroke-width="4" stroke-linecap="round" stroke-linejoin="round" opacity="1" fill="none"></path><path d="M410.94 649.68C463.05 649.68 501.15 639.28 523.91 630.52 548.56 621.05 561.07 611.43 561.15 611.35L493.87 540.16 479.79 546.41C472.51 541.72 449.9 532.88 416.18 532.88 412.9 532.88 409.61 532.96 406.25 533.11 390.13 533.9 376.36 534.99 364.24 535.93 353.36 536.79 343.74 537.5 335.05 537.81L314.09 635.52C344.21 644.75 377.77 649.68 410.94 649.68Z" fill="#ff4f32" opacity="1" stroke-width="4" stroke="none"></path><path d="M478.38 545.71C479.94 546.1 491.76 555.33 491.52 555.72" stroke="#000000" stroke-width="4" stroke-linecap="round" stroke-linejoin="round" opacity="1" fill="none"></path><path d="M459.53 538.28C446.54 534.68 431.91 532.8 416.18 532.8 412.9 532.8 409.61 532.88 406.25 533.04 403.51 533.19 400.77 533.27 398.19 533.43 396.55 542.35 398.74 550.01 404.68 556.27 420.25 572.78 450.14 575.2 450.45 575.28L459.53 538.28Z" fill="#934235" opacity="1" stroke-width="4" stroke="none"></path><path d="M477.52 643.35C455.46 647.49 433.08 649.6 410.71 649.45 405.15 649.45 399.6 649.29 394.12 649.06" stroke="#000000" stroke-width="4" stroke-linecap="round" stroke-linejoin="round" opacity="1" fill="none"></path><path d="M531.2 579.59C515.78 588.58 477.45 604.23 428.94 604.23 380.44 604.23 323.4 593.04 323.4 593.04" stroke="#000000" stroke-width="4" stroke-linecap="round" stroke-linejoin="round" opacity="1" fill="none"></path><path d="M493.87 540.08L561.15 611.27" stroke="#000000" stroke-width="4" stroke-linecap="round" stroke-linejoin="round" opacity="1" fill="none"></path></g><g><path d="M1148.63 329.84L1115.72 249.95 1182.17 225.34 1208.9 290.2" stroke="#3c2c5b" stroke-width="4" stroke-linecap="round" stroke-linejoin="round" opacity="1" fill="none"></path><path d="M1146.3 349.43C1153.82 339.8 1153.21 327.29 1144.94 321.49 1136.67 315.69 1123.86 318.8 1116.34 328.43 1108.82 338.05 1109.43 350.56 1117.71 356.36 1125.98 362.16 1138.78 359.05 1146.3 349.43Z" fill="#3c2c5b" opacity="1" stroke-width="4" stroke="none"></path><path d="M1206.95 310.65C1214.47 301.02 1213.86 288.52 1205.59 282.72 1197.31 276.92 1184.51 280.02 1176.99 289.65 1169.47 299.28 1170.08 311.79 1178.35 317.58 1186.63 323.38 1199.43 320.28 1206.95 310.65Z" fill="#3c2c5b" opacity="1" stroke-width="4" stroke="none"></path></g><g><path d="M1141.29 811.58L1152.96 778.7 1247.26 812.77C1243.68 823.85 1240.75 835.12 1238.49 846.55L1238.4 846.5 1141.29 811.58Z" fill="#3c2c5b" opacity="1" stroke-width="4" stroke="none"></path><path d="M915.49 615.76C902.3 592.24 890.35 568.05 879.72 543.27 875.01 545.1 870.02 546.02 864.98 546 859.16 546.03 853.42 544.72 848.2 542.17V421.47C850.93 418.74 853.57 417.47 856.46 417.47 863.28 417.47 871.71 424.79 887.47 444.47 896.84 456.22 910.55 474.53 925.11 493.95 944.71 520.1 965.06 547.19 979.37 564.48L950.44 596.07H948.95Z" fill="#9b5a59" opacity="1" stroke-width="4" stroke="none"></path><path d="M1155.01 945.31C1125.62 945.31 1100.92 932.45 1079.63 905.87 1058.67 879.89 1041.55 841.48 1027.24 788.5 1007.57 715.84 988.23 699.32 967.79 681.86 958.93 674.28 949.82 666.52 940.36 653.92 931.23 641.75 922.92 628.99 915.46 615.73L978.37 563.29C980.61 565.89 981.84 567.29 982.95 568.66L983.72 569.59C992.83 580.15 1002.63 591.14 1013.1 602.81 1033.03 625.13 1053.65 648.13 1073.15 672.66 1099.13 705.45 1156.88 812.09 1157.48 813.2L1238.52 846.4C1230.43 888.91 1212.93 945.31 1155.01 945.31Z" fill="#ffc930" opacity="1" stroke-width="4" stroke="none"></path><path d="M1095.47 705.45L998.11 715.08C1005.86 727.34 1012.85 742.76 1019.32 762.18 1019.66 762.18 1053.56 760.47 1075.45 757.92 1097.34 755.45 1122.22 750.85 1122.47 750.76 1111.48 731.86 1102.97 717.46 1095.47 705.45Z" fill="#403514" opacity="0.25" stroke-width="4" stroke="none"></path><path d="M942.92 593.87C987.72 652.3 1024.35 673.59 1044.96 707.24 1067.79 744.55 1092.49 878.02 1147.85 891.65 1185.16 900.85 1201.94 843.95 1204.84 832.88" stroke="#1b1709" stroke-width="4" stroke-linecap="round" stroke-linejoin="round" opacity="1" fill="none"></path><path d="M1206.63 656.73L1221.36 621.64H1220.42C1217.61 621.64 1210.63 621.38 1205.18 619.08 1198.96 616.44 1194.02 612.1 1191.55 607.16 1186.69 597.53 1188.57 587.65 1198.02 573.25 1197.94 573.17 1193.42 565.25 1195.04 561.33 1195.48 560.38 1196.29 559.65 1197.26 559.29 1200.49 557.84 1206.37 557.67 1206.46 557.67 1211.44 547.45 1218.22 538.21 1226.47 530.41 1232.52 524.96 1242.77 527.63 1253.75 527.63 1264.23 527.63 1270.66 531.29 1282.42 536.48 1301.07 544.66 1307.9 558.96 1305.6 578.21 1303.05 600.09 1309.09 607.84 1309.09 607.92L1273.32 682.88 1206.63 656.73Z" fill="#9b5a59" opacity="1" stroke-width="4" stroke="none"></path><path d="M1221.36 621.64L1238.99 620.78 1217.61 630.58 1221.36 621.64Z" fill="#181818" opacity="0.25" stroke-width="4" stroke="none"></path><path d="M1205.26 583.65C1207.14 586.29 1214.63 586.03 1217.1 583.31" stroke="#000000" stroke-width="4" stroke-linecap="round" stroke-linejoin="round" opacity="1" fill="none"></path><path d="M1252.03 599.49L1262.25 596.93" stroke="#000000" stroke-width="4" stroke-linecap="round" stroke-linejoin="round" opacity="1" fill="none"></path><path d="M1343.59 576.49C1364.53 576.49 1381.49 559.52 1381.49 538.59 1381.49 517.65 1364.53 500.68 1343.59 500.68 1322.66 500.68 1305.69 517.65 1305.69 538.59 1305.69 559.52 1322.66 576.49 1343.59 576.49Z" fill="#181818" opacity="1" stroke-width="4" stroke="none"></path><path d="M980.39 736.2C953.48 732.37 933.63 728.11 933.46 728.11 925.54 731.26 913.79 732.79 896.41 732.79 886.79 732.79 876.82 732.37 867.19 731.94 864.21 731.77 861.32 731.68 858.51 731.6 846.75 731.17 842.49 728.28 841.04 725.89 840.6 725.24 840.33 724.48 840.25 723.69 840.18 722.9 840.3 722.1 840.62 721.38 834.49 721.12 830.23 719.42 828.18 716.44 827.51 715.42 827.05 714.27 826.85 713.07 826.64 711.87 826.69 710.64 826.99 709.45 823.24 708.69 819.32 707.24 819.32 701.79 819.32 695.83 825.88 694.97 825.88 694.97 825.59 693.41 825.68 691.8 826.14 690.29 827.16 687.39 830.06 682.45 838.92 681.34 852.37 679.64 878.69 677.94 878.95 677.94 878.78 677.94 860.12 670.19 861.06 661.75 861.23 660.22 863.79 659.45 868.81 659.45 879.55 659.45 899.56 662.95 917.19 666.01 927.5 667.8 937.21 669.51 943.68 670.27 946.66 670.53 955.18 670.61 968.3 670.61 972.05 670.61 976.49 670.56 980.75 670.56L988.96 697.78 986.31 729.86Z" fill="#9b5a59" opacity="1" stroke-width="4" stroke="none"></path><path d="M1152.96 778.7L1160.89 756.22 1153.22 737.48C1146.49 737.9 1139.59 738.5 1132.35 739.01 1110.38 740.71 1085.5 742.59 1059.61 742.59 1036.7 742.59 1010.04 740.46 980.39 736.2V670.53C989.42 670.44 999.3 670.44 1009.01 670.36 1023.32 670.27 1036.87 670.19 1047.69 670.19 1067.79 670.19 1099.56 664.74 1130.31 659.45 1150.07 656.05 1168.72 652.81 1182.27 651.45 1194.36 650.34 1204.84 649.74 1214.46 649.74 1220.7 649.7 1226.92 649.99 1233.12 650.6 1248.02 652.04 1259.61 655.45 1267.44 660.82 1289.08 675.55 1292.74 703.41 1287.03 723 1281.67 741.39 1275.7 751.87 1269.4 762.94 1263.39 773.06 1258.15 783.63 1253.73 794.55 1251.51 800.25 1249.38 806.22 1246.72 814.51L1152.9 778.9Z" fill="#ff4f32" opacity="1" stroke-width="4" stroke="none"></path><path d="M1221.36 762.01C1212.08 723.59 1223.49 700 1234.48 677.17 1243 659.45 1251 642.76 1250.32 619.76 1250.58 619.68 1271.96 617.63 1280.39 606.81 1281.78 605.05 1282.77 603.02 1283.32 600.85 1283.86 598.68 1283.94 596.41 1283.54 594.21 1281.92 583.48 1271.45 581.26 1262.93 581.26 1257.82 581.29 1252.72 581.94 1247.77 583.22 1247.77 576.66 1249.81 569.59 1253.73 562.78 1248.28 562.35 1242.32 559.88 1241.04 555.62 1239.93 551.88 1242.91 547.28 1249.47 542.34 1225.02 540.72 1223.58 533.39 1223.58 533.31L1225.28 531.6 1226.56 530.41C1232.6 524.96 1242.06 521.98 1253.05 521.98 1263.52 521.98 1274.77 524.62 1286.52 529.81 1305.18 537.99 1316.59 557.16 1314.29 576.41 1313.61 581.94 1313.1 586.2 1312.67 589.61 1311.39 599.92 1311.05 602.39 1311.73 608.77 1312.67 622.83 1323.91 634.07 1336.86 647.19 1360.03 670.53 1388.99 699.57 1384.14 762.09L1221.36 762.01V762.01Z" fill="#181818" opacity="1" stroke-width="4" stroke="none"></path><path d="M1221.36 621.64C1227.92 621.64 1235.65 620.78 1235.65 620.78" stroke="#000000" stroke-width="4" stroke-linecap="round" stroke-linejoin="round" opacity="1" fill="none"></path><path d="M1218.12 565.42C1219.78 565.42 1221.11 564.08 1221.11 562.44 1221.11 560.79 1219.78 559.46 1218.12 559.46 1216.48 559.46 1215.14 560.79 1215.14 562.44 1215.14 564.08 1216.48 565.42 1218.12 565.42Z" fill="#181818" opacity="1" stroke-width="4" stroke="none"></path><path d="M1186.81 734.73L1153.22 737.48" stroke="#070404" stroke-width="4" stroke-linecap="round" stroke-linejoin="round" opacity="1" fill="none"></path><path d="M1147.85 794.63L1167.7 831.17" stroke="#1b1709" stroke-width="4" stroke-linecap="round" stroke-linejoin="round" opacity="1" fill="none"></path><path d="M879.76 543.09L876.35 534.58" stroke="#000000" stroke-width="4" stroke-linecap="round" stroke-linejoin="round" opacity="1" fill="none"></path><path d="M878.11 678.04L896 677.19" stroke="#000000" stroke-width="4" stroke-linecap="round" stroke-linejoin="round" opacity="1" fill="none"></path><path d="M826.62 694.9L883.68 691.49" stroke="#000000" stroke-width="4" stroke-linecap="round" stroke-linejoin="round" opacity="1" fill="none"></path><path d="M827.33 709.54L884.66 705.96" stroke="#000000" stroke-width="4" stroke-linecap="round" stroke-linejoin="round" opacity="1" fill="none"></path><path d="M840.36 721.23L888.06 719.53" stroke="#000000" stroke-width="4" stroke-linecap="round" stroke-linejoin="round" opacity="1" fill="none"></path><path d="M1153.22 737.48L1192.15 734.07 1157.82 748.63 1153.22 737.48Z" fill="#261715" opacity="0.25" stroke-width="4" stroke="none"></path></g></svg>